<svg width="30" height="30" viewBox="0 0 30 30" fill="none" xmlns="http://www.w3.org/2000/svg">
<path d="M1 29H29M2.55556 29V11.8889L6.44444 4.88889L15 1L23.5556 4.88889L27.4444 11.8889V29" stroke="black" stroke-width="2" stroke-linecap="round" stroke-linejoin="round"/>
<path d="M10.333 29V21.2222C10.333 20.8097 10.4969 20.414 10.7886 20.1223C11.0803 19.8306 11.476 19.6667 11.8886 19.6667H18.1108C18.5233 19.6667 18.919 19.8306 19.2107 20.1223C19.5025 20.414 19.6663 20.8097 19.6663 21.2222V29M11.8886 10.3333C11.8886 11.1585 12.2163 11.9498 12.7998 12.5332C13.3832 13.1167 14.1746 13.4445 14.9997 13.4445C15.8248 13.4445 16.6161 13.1167 17.1996 12.5332C17.783 11.9498 18.1108 11.1585 18.1108 10.3333C18.1108 9.50822 17.783 8.7169 17.1996 8.13345C16.6161 7.55001 15.8248 7.22223 14.9997 7.22223C14.1746 7.22223 13.3832 7.55001 12.7998 8.13345C12.2163 8.7169 11.8886 9.50822 11.8886 10.3333Z" stroke="black" stroke-width="2" stroke-linecap="round" stroke-linejoin="round"/>
</svg>
