<svg width="38" height="38" viewBox="0 0 38 38" fill="none" xmlns="http://www.w3.org/2000/svg">
<path d="M4.75033 31.6667H33.2503C33.5289 31.6668 33.8026 31.5933 34.0437 31.4538C34.2849 31.3143 34.4849 31.1136 34.6237 30.8721C34.7625 30.6305 34.8351 30.3566 34.8341 30.078C34.8332 29.7994 34.7587 29.526 34.6183 29.2854L23.535 10.2854C22.9666 9.3116 21.3674 9.31477 20.7974 10.2854L15.6215 19.1584L14.0065 16.5744C13.8641 16.3477 13.6665 16.1608 13.4322 16.0312C13.198 15.9016 12.9347 15.8336 12.667 15.8334C12.3987 15.8336 12.1333 15.9021 11.8988 16.0322C11.6642 16.1624 11.4665 16.35 11.3243 16.5775L3.40766 29.2442C3.25787 29.4839 3.17496 29.7593 3.16754 30.0418C3.16012 30.3243 3.22846 30.6037 3.36548 30.8509C3.50249 31.0981 3.70317 31.3041 3.94669 31.4476C4.19021 31.591 4.4677 31.6667 4.75033 31.6667ZM22.167 14.2263L30.4937 28.5H21.4624L17.5262 22.1873L22.167 14.2263ZM12.6686 20.4013L17.7289 28.5H7.60825L12.6686 20.4013ZM9.50033 12.6667C12.1192 12.6667 14.2503 10.5355 14.2503 7.91669C14.2503 5.29785 12.1192 3.16669 9.50033 3.16669C6.8815 3.16669 4.75033 5.29785 4.75033 7.91669C4.75033 10.5355 6.8815 12.6667 9.50033 12.6667ZM9.50033 6.33335C9.92026 6.33335 10.323 6.50017 10.6199 6.7971C10.9168 7.09403 11.0837 7.49676 11.0837 7.91669C11.0837 8.33661 10.9168 8.73934 10.6199 9.03627C10.323 9.33321 9.92026 9.50002 9.50033 9.50002C9.0804 9.50002 8.67768 9.33321 8.38074 9.03627C8.08381 8.73934 7.917 8.33661 7.917 7.91669C7.917 7.49676 8.08381 7.09403 8.38074 6.7971C8.67768 6.50017 9.0804 6.33335 9.50033 6.33335Z" fill="black"/>
</svg>
