<svg width="28" height="28" viewBox="0 0 28 28" fill="none" xmlns="http://www.w3.org/2000/svg">
<path d="M2.8 0H25.2C26.74 0 28 1.26 28 2.8V11.2H11.2V25.2H17.57C17.822 25.62 18.074 26.012 18.326 26.376C18.732 26.978 19.124 27.524 19.488 28H2.8C1.26 28 0 26.74 0 25.2V2.8C0 1.26 1.26 0 2.8 0ZM8.4 2.8H2.8V16.8H8.4V2.8ZM2.8 19.6V25.2H8.4V19.6H2.8ZM11.2 8.4H25.2V2.8H11.2V8.4ZM23.1 28C23.1 28 22.288 27.09 21.322 25.774C21.196 25.592 21.056 25.396 20.916 25.2C19.6 23.324 18.2 20.846 18.2 18.9C18.2 16.24 20.44 14 23.1 14C23.842 14 24.556 14.182 25.2 14.49C26.838 15.288 28 16.982 28 18.9C28 21.056 26.278 23.856 24.878 25.774C23.912 27.09 23.1 28 23.1 28ZM21.42 19.04C21.42 19.88 22.12 20.72 23.1 20.72C24.08 20.72 24.92 19.88 24.78 19.04C24.78 18.2 23.94 17.36 23.1 17.36C22.26 17.36 21.42 18.06 21.42 19.04Z" fill="black"/>
</svg>
