<svg width="33" height="33" viewBox="0 0 33 33" fill="none" xmlns="http://www.w3.org/2000/svg">
<path d="M25.9602 27.5V22C27.5002 21.78 28.6002 20.46 28.6002 18.7C28.6002 16.94 27.0602 15.4 25.3002 15.4C23.5402 15.4 22.0002 16.94 22.0002 18.7C22.0002 20.24 23.1002 21.78 24.6402 22V27.5H15.4002V2.20001H4.4002V27.5H2.2002V28.6H30.8002V27.5H25.9602ZM13.2002 22H6.6002V19.8H13.2002V22ZM13.2002 17.6H6.6002V15.4H13.2002V17.6ZM13.2002 13.2H6.6002V11H13.2002V13.2ZM13.2002 8.80001H6.6002V6.60001H13.2002V8.80001Z" fill="black"/>
</svg>
