<svg width="28" height="28" viewBox="0 0 28 28" fill="none" xmlns="http://www.w3.org/2000/svg">
<path d="M4.66699 12.8333H23.3337V25.6666H4.66699V12.8333Z" stroke="black" stroke-width="1.5" stroke-linecap="round" stroke-linejoin="round"/>
<path d="M16.9168 25.6667V22.1667C16.9168 21.0665 16.9168 20.517 16.575 20.1752C16.2332 19.8333 15.6837 19.8333 14.5835 19.8333H13.4168C12.3167 19.8333 11.7672 19.8333 11.4253 20.1752C11.0835 20.517 11.0835 21.0665 11.0835 22.1667V25.6667M3.50016 25.6667H24.5002M8.16683 17.5H9.3335M19.8335 17.5H18.6668M5.8335 8.75001V3.50001M2.3335 11.3435C2.3335 10.6692 2.6485 10.1302 3.28666 9.91551L12.7518 6.75268C13.7552 6.41668 14.0002 5.86368 14.0002 4.88368C14.0002 4.00051 13.8555 2.23651 15.2415 2.33568C15.5682 2.35901 15.9648 2.66818 16.7558 3.28534L25.0123 9.72418C25.479 10.087 25.6668 10.5198 25.6668 11.1242C25.6668 12.2243 25.2048 12.8333 24.1327 12.8333H3.67166C2.81183 12.8333 2.3335 12.1987 2.3335 11.3435Z" stroke="black" stroke-width="1.5" stroke-linecap="round" stroke-linejoin="round"/>
</svg>
