<svg width="35" height="28" viewBox="0 0 35 28" fill="none" xmlns="http://www.w3.org/2000/svg">
<path d="M4.33922 27.2713C3.40697 27.2713 2.60919 26.9397 1.94588 26.2764C1.28257 25.6131 0.950349 24.8147 0.949219 23.8814V11.7197C0.949219 11.2677 1.03397 10.8372 1.20347 10.4281C1.37297 10.0191 1.61309 9.65862 1.92384 9.34674L8.70384 2.56674C9.04284 2.22774 9.42421 1.97349 9.84796 1.80399C10.2717 1.63449 10.6955 1.54974 11.1192 1.54974C11.543 1.54974 11.9667 1.63449 12.3905 1.80399C12.8142 1.97349 13.1956 2.22774 13.5346 2.56674L20.3146 9.34674C20.6253 9.65749 20.8655 10.018 21.035 10.4281C21.2045 10.8383 21.2892 11.2689 21.2892 11.7197V23.8814C21.2892 24.8136 20.9575 25.6119 20.2942 26.2764C19.6309 26.9408 18.8326 27.2725 17.8992 27.2713H13.6617C13.4357 27.2713 13.238 27.1866 13.0685 27.0171C12.899 26.8476 12.8142 26.6498 12.8142 26.4238V20.4914C12.8142 20.0111 12.6515 19.6088 12.326 19.2845C12.0006 18.9602 11.5983 18.7975 11.1192 18.7964C10.6401 18.7952 10.2378 18.9579 9.91237 19.2845C9.58693 19.6111 9.42421 20.0134 9.42421 20.4914V26.4238C9.42421 26.6498 9.33946 26.8476 9.16996 27.0171C9.00046 27.1866 8.80271 27.2713 8.57671 27.2713H4.33922ZM24.6792 25.5763V8.92299L18.7891 3.03287C18.2523 2.49612 18.1252 1.8814 18.4077 1.18871C18.6902 0.49602 19.2128 0.15024 19.9756 0.15137C20.2016 0.15137 20.4276 0.20109 20.6536 0.30053C20.8796 0.399969 21.0632 0.51975 21.2045 0.65987L27.0946 6.54999C27.4053 6.86074 27.6454 7.22121 27.8149 7.6314C27.9844 8.04159 28.0692 8.47212 28.0692 8.92299V25.5763C28.0692 26.0566 27.9065 26.4594 27.581 26.7849C27.2556 27.1103 26.8533 27.2725 26.3742 27.2713C25.8951 27.2702 25.4928 27.1075 25.1674 26.7832C24.8419 26.4589 24.6792 26.0566 24.6792 25.5763ZM31.4592 25.5763V6.12624L28.3658 3.03287C27.8291 2.49612 27.7019 1.8814 27.9844 1.18871C28.2669 0.49602 28.7896 0.15024 29.5523 0.15137C29.7783 0.15137 30.0043 0.20109 30.2303 0.30053C30.4563 0.399969 30.6399 0.51975 30.7812 0.65987L33.8746 3.75324C34.1853 4.06399 34.4254 4.42446 34.5949 4.83465C34.7644 5.24484 34.8492 5.67537 34.8492 6.12624V25.5763C34.8492 26.0566 34.6865 26.4594 34.361 26.7849C34.0356 27.1103 33.6333 27.2725 33.1542 27.2713C32.6751 27.2702 32.2728 27.1075 31.9474 26.7832C31.6219 26.4589 31.4592 26.0566 31.4592 25.5763ZM11.1192 15.4064C11.5995 15.4064 12.0023 15.2436 12.3277 14.9182C12.6532 14.5928 12.8153 14.1905 12.8142 13.7114C12.8131 13.2322 12.6504 12.83 12.326 12.5045C12.0017 12.1791 11.5995 12.0164 11.1192 12.0164C10.639 12.0164 10.2367 12.1791 9.91237 12.5045C9.58806 12.83 9.42534 13.2322 9.42421 13.7114C9.42308 14.1905 9.5858 14.5933 9.91237 14.9199C10.2389 15.2465 10.6412 15.4086 11.1192 15.4064Z" fill="#000"/>
</svg>
