<svg width="89" height="80" viewBox="0 0 89 80" fill="none" xmlns="http://www.w3.org/2000/svg">
<g clip-path="url(#clip0_183_145)">
<path d="M19.3701 74.76V68.31H22.1201C23.3501 68.31 23.9601 68.83 23.9601 69.86C23.9601 70.7 23.3601 71.32 22.1601 71.72L24.3701 74.76H23.2701L21.2201 71.86V71.31C22.4501 71.11 23.0701 70.64 23.0701 69.89C23.0701 69.29 22.7301 69 22.0401 69H20.2001V74.76H19.3701Z" fill="#075F37" fill-opacity="0.91"/>
<path d="M29.48 68.31V68.99H26.1V71.16H29.33V71.84H26.1V74.09H29.55V74.77H25.26V68.32H29.48V68.31Z" fill="#075F37" fill-opacity="0.91"/>
<path d="M31.0201 74.76H30.1501L32.8901 68.31H33.8101L36.5601 74.76H35.6401L34.8101 72.73H32.6801L32.9101 72.05H34.5301L33.3301 69.13L31.0201 74.76Z" fill="#075F37" fill-opacity="0.91"/>
<path d="M38.2802 68.31V74.08H41.6502V74.76H37.4402V68.31H38.2802Z" fill="#075F37" fill-opacity="0.91"/>
<path d="M49.1201 68.31V68.99H45.7401V71.16H48.9601V71.84H45.7401V74.09H49.1901V74.77H44.9001V68.32H49.1201V68.31Z" fill="#075F37" fill-opacity="0.91"/>
<path d="M50.3601 74.54V73.77C51.0401 74.01 51.7701 74.13 52.5501 74.13C53.6601 74.13 54.2201 73.72 54.2201 72.91C54.2201 72.22 53.8101 71.87 52.9901 71.87H52.1601C50.8101 71.87 50.1401 71.28 50.1401 70.11C50.1401 68.88 51.0001 68.26 52.7301 68.26C53.4801 68.26 54.1801 68.35 54.8301 68.53V69.3C54.1801 69.06 53.4801 68.94 52.7301 68.94C51.5601 68.94 50.9701 69.33 50.9701 70.11C50.9701 70.8 51.3701 71.15 52.1601 71.15H52.9901C54.3601 71.15 55.0501 71.74 55.0501 72.91C55.0501 74.17 54.2201 74.8 52.5501 74.8C51.7701 74.81 51.0401 74.72 50.3601 74.54Z" fill="#075F37" fill-opacity="0.91"/>
<path d="M60.6202 68.31V68.99H58.5902V74.76H57.7602V68.99H55.7302V68.31H60.6202Z" fill="#075F37" fill-opacity="0.91"/>
<path d="M61.15 74.76H60.28L63.02 68.31H63.95L66.7 74.76H65.78L64.95 72.73H62.82L63.05 72.05H64.67L63.47 69.13L61.15 74.76Z" fill="#075F37" fill-opacity="0.91"/>
<path d="M71.2501 68.31V68.99H69.2201V74.76H68.3901V68.99H66.3601V68.31H71.2501Z" fill="#075F37" fill-opacity="0.91"/>
<path d="M76.4602 68.31V68.99H73.0802V71.16H76.3102V71.84H73.0802V74.09H76.5302V74.77H72.2402V68.32H76.4602V68.31Z" fill="#075F37" fill-opacity="0.91"/>
<path d="M16.63 77.56L17.12 78.52L17.62 77.56H18.04L17.32 78.85V79.54H16.94V78.84L16.22 77.55H16.63V77.56Z" fill="#075F37" fill-opacity="0.91"/>
<path d="M20.0599 79.56C19.9199 79.56 19.7899 79.53 19.6799 79.48C19.5599 79.42 19.4699 79.35 19.3799 79.25C19.2999 79.16 19.2299 79.05 19.1899 78.93C19.1499 78.81 19.1199 78.68 19.1199 78.56C19.1199 78.43 19.1399 78.3 19.1899 78.18C19.2399 78.06 19.2999 77.95 19.3899 77.86C19.4699 77.77 19.5799 77.69 19.6899 77.64C19.8099 77.59 19.9299 77.56 20.0699 77.56C20.2099 77.56 20.3399 77.59 20.4499 77.65C20.5699 77.71 20.6599 77.79 20.7499 77.88C20.8299 77.97 20.8999 78.08 20.9399 78.21C20.9899 78.33 21.0099 78.45 21.0099 78.58C21.0099 78.71 20.9899 78.84 20.9399 78.96C20.8899 79.08 20.8299 79.19 20.7399 79.28C20.6599 79.37 20.5599 79.45 20.4399 79.5C20.3299 79.54 20.1999 79.56 20.0599 79.56ZM19.5099 78.55C19.5099 78.64 19.5199 78.72 19.5499 78.8C19.5799 78.88 19.6099 78.95 19.6599 79.01C19.7099 79.07 19.7699 79.12 19.8399 79.16C19.9099 79.2 19.9899 79.22 20.0699 79.22C20.1599 79.22 20.2399 79.2 20.3099 79.16C20.3799 79.12 20.4399 79.07 20.4799 79.01C20.5299 78.95 20.5599 78.88 20.5899 78.8C20.6099 78.72 20.6299 78.64 20.6299 78.56C20.6299 78.47 20.6199 78.39 20.5899 78.31C20.5599 78.23 20.5299 78.16 20.4799 78.1C20.4299 78.04 20.3699 77.99 20.3099 77.95C20.2399 77.91 20.1699 77.9 20.0799 77.9C19.9899 77.9 19.9099 77.92 19.8399 77.96C19.7699 78 19.7099 78.05 19.6699 78.11C19.6199 78.17 19.5899 78.24 19.5599 78.32C19.5299 78.39 19.5099 78.47 19.5099 78.55Z" fill="#075F37" fill-opacity="0.91"/>
<path d="M23.2699 79.22C23.3599 79.22 23.4399 79.2 23.4999 79.16C23.5599 79.12 23.6099 79.07 23.6499 79.01C23.6899 78.95 23.7199 78.88 23.7299 78.8C23.7499 78.72 23.7499 78.64 23.7499 78.56V77.55H24.1299V78.56C24.1299 78.7 24.1099 78.82 24.0799 78.94C24.0499 79.06 23.9999 79.16 23.9299 79.25C23.8599 79.34 23.7699 79.41 23.6599 79.46C23.5499 79.51 23.4199 79.54 23.2599 79.54C23.0999 79.54 22.9699 79.51 22.8599 79.46C22.7499 79.41 22.6599 79.33 22.5899 79.24C22.5199 79.15 22.4699 79.04 22.4399 78.93C22.4099 78.81 22.3899 78.69 22.3899 78.56V77.55H22.7799V78.56C22.7799 78.64 22.7899 78.72 22.7999 78.8C22.8199 78.88 22.8399 78.95 22.8799 79.01C22.9199 79.07 22.9699 79.12 23.0299 79.15C23.0999 79.2 23.1799 79.22 23.2699 79.22Z" fill="#075F37" fill-opacity="0.91"/>
<path d="M25.6499 79.55V77.56H26.5299C26.6199 77.56 26.7099 77.58 26.7799 77.62C26.8599 77.66 26.9199 77.71 26.9799 77.77C27.0299 77.83 27.0799 77.9 27.1099 77.98C27.1399 78.06 27.1599 78.14 27.1599 78.22C27.1599 78.35 27.1299 78.47 27.0599 78.57C26.9999 78.68 26.9099 78.75 26.7999 78.8L27.2699 79.55H26.8299L26.4099 78.88H26.0299V79.55H25.6499ZM26.0299 78.54H26.5099C26.5499 78.54 26.5799 78.53 26.6099 78.51C26.6399 78.49 26.6699 78.47 26.6899 78.44C26.7099 78.41 26.7299 78.38 26.7399 78.34C26.7499 78.3 26.7599 78.26 26.7599 78.21C26.7599 78.16 26.7499 78.12 26.7399 78.08C26.7199 78.04 26.6999 78.01 26.6799 77.98C26.6499 77.95 26.6299 77.93 26.5899 77.91C26.5599 77.89 26.5299 77.89 26.4899 77.89H26.0199V78.54H26.0299Z" fill="#075F37" fill-opacity="0.91"/>
<path d="M31.85 77.9H31.2199V79.55H30.83V77.9H30.2V77.56H31.86V77.9H31.85Z" fill="#075F37" fill-opacity="0.91"/>
<path d="M32.8401 79.55L33.6201 77.56H33.9301L34.7101 79.55H34.3001L34.1201 79.05H33.4201L33.2401 79.55H32.8401ZM33.7801 77.98L33.4901 78.78H34.0501L33.7801 77.98Z" fill="#075F37" fill-opacity="0.91"/>
<path d="M37.3799 79.33C37.2299 79.49 37.0499 79.57 36.8499 79.57C36.7199 79.57 36.5999 79.54 36.4899 79.49C36.3799 79.43 36.2799 79.36 36.1999 79.26C36.1199 79.17 36.0499 79.06 35.9999 78.93C35.9499 78.81 35.9299 78.68 35.9299 78.55C35.9299 78.41 35.9499 78.29 35.9999 78.16C36.0499 78.04 36.1099 77.94 36.1999 77.84C36.2899 77.75 36.3899 77.68 36.4999 77.63C36.6199 77.58 36.7399 77.55 36.8699 77.55C37.0499 77.55 37.2099 77.59 37.3299 77.67C37.4599 77.75 37.5599 77.85 37.6199 77.99L37.3299 78.2C37.2799 78.1 37.2099 78.03 37.1299 77.97C37.0499 77.92 36.9499 77.89 36.8499 77.89C36.7699 77.89 36.6899 77.91 36.6299 77.94C36.5599 77.98 36.5099 78.02 36.4599 78.09C36.4099 78.15 36.3799 78.22 36.3499 78.3C36.3199 78.38 36.3099 78.46 36.3099 78.55C36.3099 78.64 36.3199 78.73 36.3499 78.81C36.3799 78.89 36.4199 78.96 36.4699 79.02C36.5199 79.08 36.5799 79.13 36.6499 79.16C36.7199 79.2 36.7899 79.21 36.8699 79.21C37.0499 79.21 37.2199 79.12 37.3699 78.94V78.8H36.9699V78.52H37.6899V79.54H37.3699V79.33H37.3799Z" fill="#075F37" fill-opacity="0.91"/>
<path d="M39.1499 79.55V77.56H39.5399V79.21H40.5499V79.55H39.1499Z" fill="#075F37" fill-opacity="0.91"/>
<path d="M41.9199 79.55V77.56H42.3099V79.55H41.9199Z" fill="#075F37" fill-opacity="0.91"/>
<path d="M44.2301 78.28V79.55H43.8401V77.56H44.1401L45.1801 78.86V77.56H45.5701V79.55H45.2601L44.2301 78.28Z" fill="#075F37" fill-opacity="0.91"/>
<path d="M48.4799 79.21V79.55H47.0999V77.56H48.4599V77.9H47.4899V78.38H48.3299V78.69H47.4899V79.21H48.4799Z" fill="#075F37" fill-opacity="0.91"/>
<path d="M52.8901 78.08C52.8801 78.07 52.8501 78.05 52.8201 78.03C52.7901 78.01 52.7401 77.99 52.6901 77.96C52.6401 77.94 52.5901 77.92 52.5301 77.91C52.4701 77.89 52.4101 77.89 52.3501 77.89C52.2401 77.89 52.1601 77.91 52.1101 77.95C52.0601 77.99 52.0301 78.04 52.0301 78.12C52.0301 78.16 52.0401 78.2 52.0601 78.22C52.0801 78.25 52.1101 78.27 52.1501 78.29C52.1901 78.31 52.2301 78.33 52.2901 78.35C52.3501 78.37 52.4101 78.38 52.4901 78.4C52.5901 78.43 52.6701 78.45 52.7501 78.48C52.8301 78.51 52.9001 78.55 52.9501 78.59C53.0101 78.63 53.0501 78.69 53.0801 78.75C53.1101 78.81 53.1201 78.89 53.1201 78.98C53.1201 79.09 53.1001 79.18 53.0601 79.25C53.0201 79.33 52.9701 79.39 52.9001 79.43C52.8301 79.48 52.7501 79.51 52.6701 79.53C52.5801 79.55 52.4901 79.56 52.3901 79.56C52.2401 79.56 52.0901 79.54 51.9501 79.49C51.8001 79.45 51.6701 79.38 51.5601 79.3L51.7301 78.97C51.7501 78.99 51.7801 79.01 51.8201 79.04C51.8601 79.07 51.9201 79.09 51.9801 79.12C52.0401 79.15 52.1001 79.17 52.1801 79.19C52.2501 79.21 52.3301 79.22 52.4001 79.22C52.6101 79.22 52.7201 79.15 52.7201 79.01C52.7201 78.97 52.7101 78.93 52.6801 78.9C52.6601 78.87 52.6201 78.84 52.5801 78.82C52.5401 78.8 52.4801 78.78 52.4201 78.76C52.3601 78.74 52.2901 78.72 52.2101 78.7C52.1101 78.67 52.0301 78.65 51.9601 78.61C51.8901 78.58 51.8301 78.54 51.7801 78.5C51.7301 78.46 51.7001 78.41 51.6801 78.35C51.6601 78.29 51.6401 78.23 51.6401 78.15C51.6401 78.05 51.6601 77.96 51.7001 77.88C51.7401 77.8 51.7901 77.74 51.8601 77.68C51.9301 77.63 52.0001 77.59 52.0901 77.56C52.1801 77.53 52.2701 77.52 52.3701 77.52C52.5101 77.52 52.6401 77.54 52.7601 77.59C52.8801 77.63 52.9801 77.69 53.0701 77.74L52.8901 78.08Z" fill="#075F37" fill-opacity="0.91"/>
<path d="M54.54 79.55V77.56H55.38C55.47 77.56 55.56 77.58 55.63 77.62C55.71 77.66 55.77 77.71 55.83 77.77C55.89 77.83 55.93 77.9 55.96 77.98C55.99 78.06 56.01 78.14 56.01 78.22C56.01 78.3 55.99 78.39 55.97 78.47C55.94 78.55 55.9 78.62 55.84 78.68C55.79 78.74 55.72 78.79 55.64 78.83C55.56 78.87 55.48 78.89 55.39 78.89H54.92V79.56H54.54V79.55ZM54.93 78.54H55.38C55.45 78.54 55.51 78.51 55.56 78.45C55.61 78.39 55.63 78.31 55.63 78.21C55.63 78.16 55.62 78.11 55.61 78.07C55.59 78.03 55.57 78 55.55 77.97C55.52 77.94 55.5 77.92 55.46 77.91C55.43 77.9 55.39 77.89 55.36 77.89H54.93V78.54Z" fill="#075F37" fill-opacity="0.91"/>
<path d="M57.0601 79.55L57.8401 77.56H58.1501L58.9301 79.55H58.5201L58.3401 79.05H57.6401L57.4601 79.55H57.0601ZM58.0001 77.98L57.7101 78.78H58.2701L58.0001 77.98Z" fill="#075F37" fill-opacity="0.91"/>
<path d="M60.1599 78.54C60.1599 78.42 60.1799 78.3 60.2199 78.18C60.2599 78.06 60.3299 77.96 60.4099 77.86C60.4899 77.77 60.5899 77.69 60.7099 77.63C60.8299 77.57 60.9599 77.54 61.1099 77.54C61.2899 77.54 61.4399 77.58 61.5699 77.66C61.6999 77.74 61.7899 77.85 61.8599 77.97L61.5599 78.17C61.5399 78.12 61.5099 78.07 61.4699 78.03C61.4299 77.99 61.3999 77.96 61.3499 77.94C61.3099 77.92 61.2599 77.9 61.2199 77.89C61.1799 77.88 61.1299 77.87 61.0899 77.87C60.9999 77.87 60.9199 77.89 60.8499 77.93C60.7799 77.97 60.7199 78.02 60.6799 78.08C60.6299 78.14 60.5999 78.21 60.5799 78.29C60.5599 78.37 60.5499 78.45 60.5499 78.53C60.5499 78.62 60.5599 78.7 60.5899 78.78C60.6199 78.86 60.6599 78.93 60.6999 78.99C60.7499 79.05 60.8099 79.1 60.8799 79.14C60.9499 79.18 61.0299 79.2 61.1099 79.2C61.1499 79.2 61.1999 79.19 61.2399 79.18C61.2799 79.17 61.3299 79.15 61.3699 79.13C61.4099 79.11 61.4499 79.08 61.4899 79.04C61.5299 79 61.5499 78.96 61.5799 78.9L61.8999 79.08C61.8699 79.16 61.8299 79.22 61.7699 79.28C61.7099 79.34 61.6499 79.39 61.5699 79.42C61.4999 79.46 61.4199 79.49 61.3399 79.51C61.2599 79.53 61.1799 79.54 61.0999 79.54C60.9599 79.54 60.8299 79.51 60.7199 79.45C60.6099 79.39 60.5099 79.31 60.4199 79.22C60.3399 79.12 60.2699 79.01 60.2299 78.89C60.1799 78.79 60.1599 78.67 60.1599 78.54Z" fill="#075F37" fill-opacity="0.91"/>
<path d="M64.65 79.21V79.55H63.27V77.56H64.63V77.9H63.66V78.38H64.5V78.69H63.66V79.21H64.65Z" fill="#075F37" fill-opacity="0.91"/>
<path d="M69.5399 77.56V79.55H69.1599V78.7H68.2599V79.55H67.8699V77.56H68.2599V78.36H69.1599V77.56H69.5399Z" fill="#075F37" fill-opacity="0.91"/>
<path d="M72.4601 79.21V79.55H71.0801V77.56H72.4401V77.9H71.4701V78.38H72.3101V78.69H71.4701V79.21H72.4601Z" fill="#075F37" fill-opacity="0.91"/>
<path d="M73.8899 79.55V77.56H74.7699C74.8599 77.56 74.9499 77.58 75.0199 77.62C75.0999 77.66 75.1599 77.71 75.2199 77.77C75.2799 77.83 75.3199 77.9 75.3499 77.98C75.3799 78.06 75.3999 78.14 75.3999 78.22C75.3999 78.35 75.3699 78.47 75.2999 78.57C75.2399 78.68 75.1499 78.75 75.0399 78.8L75.5099 79.55H75.0699L74.6499 78.88H74.2699V79.55H73.8899ZM74.2799 78.54H74.7599C74.7999 78.54 74.8299 78.53 74.8599 78.51C74.8899 78.49 74.9199 78.47 74.9399 78.44C74.9599 78.41 74.9799 78.38 74.9899 78.34C74.9999 78.3 75.0099 78.26 75.0099 78.21C75.0099 78.16 74.9999 78.12 74.9899 78.08C74.9699 78.04 74.9499 78.01 74.9299 77.98C74.8999 77.95 74.8799 77.93 74.8399 77.91C74.8099 77.89 74.7699 77.89 74.7399 77.89H74.2699V78.54H74.2799Z" fill="#075F37" fill-opacity="0.91"/>
<path d="M78.2799 79.21V79.55H76.8999V77.56H78.2599V77.9H77.2899V78.38H78.1299V78.69H77.2899V79.21H78.2799Z" fill="#075F37" fill-opacity="0.91"/>
<path d="M75.55 57.71V23.8L52.32 47.03V57.71H39.58V34.59L16.34 11.36V57.71H0V62.21H20.84V22.21L23.98 25.36V62.66H28.48V29.86L35.08 36.45V62.21H56.81V48.9L63.75 41.96V62.66H68.24V37.46L71.05 34.65V62.21H88.74V57.71H75.55Z" fill="#075F37" fill-opacity="0.91"/>
<path d="M45.8299 6.36L66.2799 26.81L69.4599 23.63L45.8299 0L28.3899 17.44L31.5699 20.62L45.8299 6.36Z" fill="#075F37" fill-opacity="0.91"/>
<path d="M44.5901 17.5H40.6101V21.48H44.5901V17.5Z" fill="#075F37" fill-opacity="0.91"/>
<path d="M51.19 17.5H47.21V21.48H51.19V17.5Z" fill="#075F37" fill-opacity="0.91"/>
<path d="M44.5901 23.76H40.6101V27.74H44.5901V23.76Z" fill="#075F37" fill-opacity="0.91"/>
<path d="M51.19 23.76H47.21V27.74H51.19V23.76Z" fill="#075F37" fill-opacity="0.91"/>
</g>
<defs>
<clipPath id="clip0_183_145">
<rect width="88.74" height="79.57" fill="white"/>
</clipPath>
</defs>
</svg>
